<?xml version="1.0" encoding="utf-8"?>
<!-- Generator: Adobe Illustrator 24.3.0, SVG Export Plug-In . SVG Version: 6.00 Build 0)  -->
<svg version="1.1" id="Ebene_1" xmlns="http://www.w3.org/2000/svg" xmlns:xlink="http://www.w3.org/1999/xlink" x="0px" y="0px"
	 viewBox="0 0 408.2 76.1" style="enable-background:new 0 0 408.2 76.1;" xml:space="preserve">
<style type="text/css">
	.st0{fill:#FFFFFF;}
	.st1{fill-rule:evenodd;clip-rule:evenodd;fill:#FFFFFF;}
</style>
<g>
	<polygon class="st0" points="48,38.7 69.5,18.4 48.3,18.4 26.7,38.7 	"/>
	<polygon class="st0" points="53.7,57.6 69.4,42.8 22.2,42.8 6.4,57.6 	"/>
	<path class="st1" d="M4.3,4.3v67.4h67.4V4.3H4.3L4.3,4.3z M0,0h76.1v76H0V0L0,0z"/>
	<polygon class="st0" points="141.8,0 151.4,0 151.4,14.4 181.2,14.4 181.2,0 190.8,0 190.8,37.9 181.2,37.9 181.2,23.5 151.4,23.5 
		151.4,37.9 141.8,37.9 	"/>
	<polygon class="st0" points="246,0 196.1,0 196.1,37.9 246,37.9 246,28.8 205.7,28.8 205.7,23.5 243.8,23.5 243.8,14.4 205.7,14.4 
		205.7,9.1 246,9.1 	"/>
	<polygon class="st0" points="288.6,37.9 259.7,11.7 259.7,37.9 250.1,37.9 250.1,0 261.4,0 290.1,26.1 290.1,0 299.7,0 299.7,37.9 
			"/>
	<path class="st0" d="M354,0v28.1c0,5.4-4.4,9.7-9.9,9.7h-30.2c-5.5,0-9.9-4.4-9.9-9.7V0h9.6v25.6c0,1.7,1.4,3.1,3.2,3.1h24.5
		c1.8,0,3.2-1.4,3.2-3.1V0H354L354,0z"/>
	<path class="st0" d="M396.2,37.9c6.6,0,12-5.2,12-11.7s-5.4-11.8-12-11.8H370c-1.5,0-2.8-1.2-2.8-2.7s1.2-2.6,2.8-2.6h36.8V0h-37
		c-6.6,0-12,5.3-12,11.8s5.4,11.8,12,11.8H396c1.5,0,2.8,1.2,2.8,2.7s-1.2,2.6-2.8,2.6h-37.4V38L396.2,37.9L396.2,37.9z"/>
	<path class="st1" d="M98,23.5v14.3h-9.6V0H126c6.6,0,12,5.3,12,11.8s-5.4,11.8-12,11.8h-3l14.5,14.3H124l-14.5-14.3H98V23.5z
		 M98,14.4V9.1h27.7c1.5,0,2.7,1.2,2.7,2.6c0,1.5-1.2,2.6-2.7,2.6L98,14.4L98,14.4z"/>
	<path class="st0" d="M334.1,75.9c-2.4,0-4.4-2-4.4-4.5V54.9c0-2.5,2-4.5,4.4-4.5h28.7v4.8h-25.6c-1.3,0-2.3,1.1-2.3,2.4v11.3
		c0,1.3,1,2.4,2.3,2.4h25.6V76L334.1,75.9L334.1,75.9z"/>
	<path class="st0" d="M373.1,76v-4.8h26.1c1.5,0,2.9-1.1,2.9-2.7s-1.3-2.8-2.9-2.8h-18.9c-4.3,0-7.8-3.4-7.8-7.6s3.5-7.6,7.8-7.6
		h25.8v4.8h-25.7c-1.5,0-2.9,1.1-2.9,2.7c0,1.6,1.3,2.8,2.9,2.8h18.9c4.3,0,7.8,3.4,7.8,7.6c0,4.2-3.5,7.6-7.8,7.6H373.1L373.1,76z"
		/>
	<polygon class="st0" points="303.4,55.2 291,55.2 291,76 285.8,76 285.8,55.3 273.4,55.2 273.4,50.4 303.4,50.4 	"/>
	<polygon class="st0" points="313.2,50.4 318.3,50.4 318.3,76 313.2,76 	"/>
	<path class="st0" d="M231.9,76v-4.8H258c1.5,0,2.9-1.1,2.9-2.7s-1.3-2.8-2.9-2.8h-18.9c-4.3,0-7.8-3.4-7.8-7.6s3.5-7.6,7.8-7.6
		h25.8v4.8h-25.7c-1.5,0-2.9,1.1-2.9,2.7c0,1.6,1.3,2.8,2.9,2.8h18.9c4.3,0,7.8,3.4,7.8,7.6c0,4.2-3.5,7.6-7.8,7.6H231.9L231.9,76z"
		/>
	<polygon class="st0" points="215.9,50.4 221.1,50.4 221.1,76 215.9,76 	"/>
	<polygon class="st0" points="88.2,50.4 93.4,50.4 93.4,71.2 120.9,71.3 120.9,76.1 88.3,76.1 	"/>
	<path class="st0" d="M137.7,55.2h-2.9c-1.3,0-2.3,1.1-2.3,2.4v11.3c0,1.3,1,2.4,2.3,2.4h2.9H149h4c1.3,0,2.3-1.1,2.3-2.4V57.5
		c0-1.3-1-2.4-2.3-2.4h-4h-11.3V55.2z M137.8,75.9h-6c-2.4,0-4.4-2-4.4-4.5V54.9c0-2.5,2-4.5,4.4-4.5h6H149h7.1c2.4,0,4.4,2,4.4,4.5
		v16.5c0,2.5-2,4.5-4.4,4.5H149H137.8L137.8,75.9z"/>
	<path class="st0" d="M181.8,71.2h5.4h8.8c1.3,0,2.3-1.1,2.3-2.4v-1.3c0-1.3-1-2.4-2.3-2.4h-12.6v-4.8h15.7c2.4,0,4.4,2,4.4,4.5v6.4
		c0,2.5-2,4.5-4.4,4.5h-11.9h-5.4h-7.2c-2.4,0-4.4-2-4.4-4.5V54.9c0-2.5,2-4.5,4.4-4.5h28.8v4.8h-25.7c-1.3,0-2.3,1.1-2.3,2.4v11.3
		c0,1.3,1,2.4,2.3,2.4h4.1V71.2z"/>
</g>
</svg>
